<?xml version="1.0" encoding="utf-8"?>
<svg viewBox="293.021 60.904 225.664 202.609" xmlns="http://www.w3.org/2000/svg">
  <g transform="matrix(14.846317, 0, 0, 14.452507, 226.21236, -11.085036)" style="">
    <path d="M4.5,14.1C4.7,14.1,4.9,14,5,14c0.3-0.1,0.6-0.1,0.9-0.1c0.5,0,0.9,0,1.4,0.1C7.7,14,8,14.1,8.3,14.2 c0.4,0.2,0.8,0.5,1.1,0.9c0.4,0.5,0.6,1.1,0.7,1.7c0,0.1,0,0.1,0.1,0.1c1.2,0,2.3,0,3.5,0c0,0,0,0,0.1,0c0,0,0.1,0,0.1-0.1 c0-0.2,0.1-0.5,0.2-0.7c0.1-0.3,0.2-0.5,0.3-0.8c0.2-0.4,0.6-0.7,1-1c0.4-0.3,0.9-0.4,1.4-0.5c0.2,0,0.4,0,0.6,0 c0.2,0,0.4,0.1,0.6,0.2c0.3,0.1,0.6,0.3,0.9,0.6c0.1,0.1,0.1,0.2,0.2,0.2c0.1,0.1,0.2,0.1,0.3,0c0,0,0-0.1,0-0.1c0,0,0-0.1,0.1-0.1 c0.2-0.1,0.2-0.2,0.2-0.3c0-0.1,0-0.3,0-0.4c0-0.2-0.1-0.3-0.3-0.3c-0.1,0-0.1,0-0.1-0.1C19,13.3,19,13.1,18.9,13 c-0.2-0.5-0.5-0.9-0.9-1.2c-0.4-0.3-0.8-0.5-1.3-0.7c-0.2-0.1-0.5-0.2-0.8-0.2c-0.2,0-0.3-0.1-0.5,0c0,0,0,0-0.1,0 c-0.2,0.1-0.5,0.2-0.7,0.3c-0.2,0.1-0.2,0.2-0.2,0.3c0,0.1,0,0.1,0.1,0.1c0,0,0.1,0,0.1,0c0.2-0.1,0.5-0.2,0.7-0.2 c0.1,0,0.1,0,0.2,0.1c0,0,0,0,0,0.1c-0.3,0.1-0.6,0.2-0.8,0.3c-0.4,0.1-0.7,0.3-1,0.5c-0.1,0-0.1,0.1-0.1,0.1 c0,0.2,0.1,0.4,0.2,0.7c0,0.1,0,0.1,0,0.1c-0.3,0.5-0.6,1-0.9,1.4c-0.1,0.2-0.3,0.5-0.4,0.7c0,0-0.1,0.1-0.1,0 c-0.1,0-0.1-0.1-0.2-0.1c-0.1,0-0.1,0,0-0.1c0.3-0.4,0.5-0.8,0.7-1.2c0.1-0.3,0.3-0.6,0.3-0.9c0-0.2,0-0.3-0.1-0.4 c-0.2-0.3-0.5-0.5-0.7-0.8c-0.3-0.3-0.3-0.6-0.3-1c0.1-0.3,0.2-0.5,0.4-0.6c0,0,0.1-0.1,0.1-0.1c0.2,0.1,0.4,0.1,0.6,0.2 c0.4,0.2,0.8,0.4,1.2,0.4c0.2,0,0.4,0,0.6,0c0.2-0.1,0.3-0.2,0.3-0.4c0-0.1-0.1-0.3-0.3-0.3c-0.1-0.1-0.3-0.1-0.5-0.1 c-0.1,0-0.2,0-0.3,0c-0.3-0.1-0.6-0.3-0.8-0.5c-0.2-0.2-0.3-0.4-0.3-0.6c0-0.2,0-0.3-0.1-0.5c0-0.2-0.1-0.4-0.2-0.6 c0,0-0.1-0.1,0-0.1c0,0,0.1,0,0.1,0c0,0,0,0,0,0c0.2,0.1,0.4,0.2,0.6,0.3c0,0,0.1,0,0.1,0C14,8,14.1,8,14.2,8 c0.1-0.1,0.1-0.1,0-0.2c-0.1-0.1-0.2-0.2-0.3-0.2c-0.2-0.2-0.2-0.4,0-0.6c0.1-0.1,0.2-0.1,0.3,0c0,0,0.1,0.1,0.1,0.1 c0.1,0.1,0.2,0.2,0.2,0.3c0.1,0.1,0.3,0.2,0.4,0c0.2-0.2,0.2-0.4,0.2-0.7c0-0.3-0.1-0.6-0.3-0.9C14.6,5.2,14,4.9,13.4,5 c-0.3,0.1-0.5,0.2-0.7,0.4c-0.3,0.3-0.4,0.6-0.5,1c0,0.3,0,0.5,0.1,0.7c0,0.1,0,0.1-0.1,0.1c-0.2,0-0.4,0-0.5,0.2c0,0,0,0,0,0 c-0.2,0.1-0.4,0.3-0.5,0.4c-0.4,0.5-0.7,1-1,1.6c-0.2,0.4-0.4,0.8-0.6,1.3c-0.1,0.3-0.2,0.6-0.1,0.9c0,0.1,0,0.2,0.1,0.3 c0.1,0.2,0.3,0.3,0.5,0.5c0.3,0.2,0.7,0.4,1.1,0.6c0,0,0.1,0,0.1,0.1c0,0-0.1,0.1-0.1,0.1c0,0,0,0,0,0c-0.2,0-0.3,0-0.5,0 c-0.3-0.1-0.6-0.2-0.9-0.3c-0.4-0.2-0.8-0.5-1-0.9c-0.1-0.1-0.1-0.1-0.2-0.1c-0.2,0-0.3,0.1-0.4,0.2c-0.2,0.2-0.4,0.4-0.5,0.5 c0,0-0.1,0-0.1,0.1c-0.2,0-0.4,0-0.5,0.1c-0.1,0-0.2,0-0.3,0c-0.2,0-0.4,0-0.6,0.1c-0.2,0-0.3,0-0.5,0.1c0,0-0.1,0-0.1,0.1 c-0.2,0.3-0.4,0.6-0.7,0.9C4.6,13.9,4.6,13.9,4.5,14.1C4.5,14.1,4.5,14.1,4.5,14.1"/>
    <path d="M9.2,16.9c0,1.1-1,2.1-2.1,2.1c-1.2,0-2.1-0.9-2.1-2.1c0-1.1,1-2.1,2.1-2.1C8.2,14.8,9.2,15.8,9.2,16.9z M8,16.9 c0-0.5-0.4-1-0.9-1c-0.5,0-1,0.4-1,1c0,0.5,0.4,0.9,0.9,0.9C7.6,17.8,8,17.4,8,16.9z"/>
    <path d="M14.6,16.9c0-1.1,1-2.1,2.1-2.1c1.1,0,2.1,1,2.1,2.1c0,1.2-1,2.1-2.1,2.1C15.6,19,14.6,18,14.6,16.9z M16.7,15.9 c-0.5,0-1,0.4-1,0.9c0,0.6,0.4,1,0.9,1c0.5,0,0.9-0.4,1-0.9C17.7,16.4,17.3,16,16.7,15.9z"/>
  </g>
</svg>