<?xml version="1.0" encoding="utf-8"?>
<svg viewBox="299.965 131.618 325.284 170.551" xmlns="http://www.w3.org/2000/svg">
  <g transform="matrix(20.98608, 0, 0, 27.508247, 211.823444, -113.205683)" style="">
    <path d="M19.7,13.3c0,0.1,0,0.2,0,0.4c0,0,0,0,0,0c-0.2,0.5-0.4,0.6-0.9,0.6c-0.6,0-1.3,0-1.9,0c-0.2,0-0.2-0.1-0.3-0.2 c-0.1-0.4-0.4-0.6-0.8-0.6c-0.4,0-0.7,0.2-0.8,0.6c0,0.1-0.1,0.2-0.3,0.2c-1.7,0-3.5,0-5.2,0c-0.1,0-0.2-0.1-0.3-0.2 c-0.1-0.4-0.4-0.6-0.8-0.6c-0.4,0-0.7,0.2-0.8,0.6c0,0.1-0.1,0.2-0.3,0.2c-0.8,0-1.5,0-2.3,0c-0.2,0-0.5-0.1-0.6-0.3 c-0.1-0.1-0.2-0.3-0.2-0.4c0-1.3,0-2.7,0-4c0-0.1,0.1-0.1,0.1-0.2C4.5,9.1,4.7,9,5,8.9c4.5,0,9.1,0,13.6,0C19,9,19.2,9.3,19.3,9.7 c0.1,0.9,0.2,1.8,0.3,2.7C19.6,12.7,19.7,13,19.7,13.3z M11.9,12.1C11.9,12.1,11.9,12.1,11.9,12.1c0.3,0,0.7,0,1,0 c0.1,0,0.2,0,0.2-0.2c0-0.6,0-1.3,0-1.9c0-0.1-0.1-0.2-0.2-0.2c-0.7,0-1.3,0-2,0c-0.1,0-0.2,0.1-0.2,0.2c0,0.6,0,1.3,0,1.9 c0,0.2,0,0.2,0.2,0.2C11.2,12.1,11.5,12.1,11.9,12.1z M14.6,12.1C14.6,12.1,14.6,12.1,14.6,12.1c0.3,0,0.7,0,1,0 c0.1,0,0.2-0.1,0.2-0.2c0-0.6,0-1.3,0-1.9c0-0.1-0.1-0.2-0.2-0.2c-0.7,0-1.3,0-2,0c-0.1,0-0.2,0.1-0.2,0.2c0,0.6,0,1.3,0,1.9 c0,0.2,0,0.2,0.2,0.2C14,12.1,14.3,12.1,14.6,12.1z M8.9,9.7C8.9,9.7,8.9,9.7,8.9,9.7c-0.3,0-0.6,0-1,0c-0.2,0-0.2,0-0.2,0.2 c0,0.6,0,1.2,0,1.9c0,0.2,0,0.2,0.2,0.2c0.6,0,1.3,0,1.9,0c0.2,0,0.2,0,0.2-0.2c0-0.6,0-1.3,0-1.9c0-0.1-0.1-0.2-0.2-0.2 C9.6,9.8,9.3,9.7,8.9,9.7z M6.7,11.9c0-0.7,0-1.3,0-2c0-0.1,0-0.2-0.2-0.2c-0.3,0-0.5,0-0.8,0c-0.1,0-0.2,0-0.2,0.2 c0,1.3,0,2.6,0,3.9c0,0.1,0,0.1,0.1,0.1c0.3,0,0.6,0,0.8,0c0.1,0,0.1,0,0.1-0.1C6.7,13.2,6.7,12.5,6.7,11.9z M18.1,11.9 c0-0.6,0-1.3,0-1.9c0-0.1,0-0.2-0.2-0.2c-0.3,0-0.5,0-0.8,0c-0.1,0-0.1,0-0.1,0.2c0,1.3,0,2.6,0,3.9c0,0.1,0,0.1,0.2,0.1 c0.3,0,0.5,0,0.8,0c0.1,0,0.2,0,0.2-0.2C18.1,13.2,18.1,12.5,18.1,11.9z M18.5,10.9C18.5,10.9,18.5,10.9,18.5,10.9c0,0.3,0,0.7,0,1 c0,0.1,0,0.1,0.1,0.1c0.2,0,0.4,0,0.6,0c0.1,0,0.1,0,0.1-0.1c-0.1-0.7-0.2-1.3-0.2-2c0-0.1-0.1-0.2-0.2-0.2c-0.1,0-0.1,0-0.2,0 c-0.1,0-0.1,0-0.1,0.1C18.5,10.2,18.5,10.6,18.5,10.9z"/>
    <path d="M15.6,15.1c0,0-0.1,0-0.1-0.1c-0.3-0.1-0.5-0.5-0.4-0.8c0.1-0.3,0.4-0.6,0.7-0.6c0.4,0,0.7,0.2,0.7,0.6 c0.1,0.3-0.1,0.7-0.4,0.8c0,0-0.1,0-0.1,0.1C15.8,15.1,15.7,15.1,15.6,15.1z M15.4,14.4c0,0.2,0.2,0.4,0.4,0.4 c0.2,0,0.4-0.2,0.4-0.4c0-0.2-0.2-0.4-0.4-0.4C15.6,14,15.4,14.1,15.4,14.4z"/>
    <path d="M8.4,15.1C8.2,15,8,14.9,7.9,14.8c-0.2-0.3-0.1-0.8,0.2-1c0.3-0.2,0.8-0.1,1,0.2c0.2,0.4,0.1,0.8-0.2,1 c-0.1,0-0.2,0.1-0.2,0.1C8.6,15.1,8.5,15.1,8.4,15.1z M8.5,14.7c0.2,0,0.4-0.2,0.4-0.4c0-0.2-0.2-0.4-0.4-0.4 c-0.2,0-0.4,0.2-0.4,0.4C8.1,14.5,8.3,14.7,8.5,14.7z"/>
  </g>
</svg>