<?xml version="1.0" encoding="utf-8"?>
<svg viewBox="516.012 225.905 17.341 5.625" xmlns="http://www.w3.org/2000/svg">
  <g transform="matrix(1, 0, 0, 1, 512.677559, 216.729587)">
    <path d="M12.1,10.4c-0.3-0.1-0.5-0.2-0.7-0.4c-0.1-0.1-0.2-0.2-0.1-0.4c0.1-0.5,0.1-0.5,0.6-0.3c0.8,0.3,1.6,0.6,2.3,1 c0.1,0,0.2,0.1,0.3,0.1c0.7,0,1.4,0,2.1,0.1c0.3,0,0.5,0.1,0.7,0.1c0.9,0.3,1.8,0.5,2.6,1c0.3,0.2,0.5,0.3,0.7,0.5 c0.1,0.1,0.1,0.2,0,0.3c-0.1,0.2-0.2,0.3-0.1,0.5c0,0.1,0,0.1,0,0.2c-0.1,0.1,0,0.3,0.1,0.4c0.1,0.1,0,0.1-0.1,0.2 c-0.4,0.2-0.7,0.3-1.1,0.4c-0.1,0-0.2,0-0.4,0c-0.1,0-0.1,0-0.1-0.1c0-0.3,0.1-0.6,0-0.9c-0.2-0.8-0.8-1.3-1.6-1.2 c-0.7,0.1-1.3,0.7-1.4,1.5c0,0.2,0,0.4,0,0.6c0,0.2,0,0.2-0.2,0.2c-1.5,0-3,0-4.5,0c-0.9,0-1.9,0-2.8,0c-0.2,0-0.2,0-0.2-0.2 c0-0.3,0.1-0.7,0-1c-0.2-0.8-0.9-1.3-1.6-1.2c-0.8,0.1-1.4,0.7-1.4,1.5c0,0.2,0,0.4,0,0.6c0,0.1,0,0.2-0.1,0.1 c-0.4-0.1-0.8-0.2-1.2-0.4c-0.2-0.1-0.5-0.3-0.4-0.6c0-0.1,0-0.2-0.1-0.3c-0.1-0.1-0.1-0.3,0.1-0.4c0.1-0.1,0.1-0.2,0.1-0.3 c0-0.4-0.1-0.7,0.1-1c0.1-0.1,0-0.2,0-0.2c-0.1-0.2-0.1-0.3,0.2-0.4c0.2-0.1,0.4-0.1,0.6-0.1c0.3,0,0.5,0,0.7-0.1 c0.7-0.2,1.4-0.3,2.1-0.3c0.3,0,0.6,0,0.9,0.1c0.5,0.2,0.9,0.2,1.4,0.3c0.1,0,0.1,0,0.1-0.1c0-0.1,0-0.1,0-0.2 c0-0.1,0.1-0.2,0.2-0.2C10,9.7,10,9.8,10,9.9c0,0,0,0.1,0,0.1c0,0.2,0.1,0.3,0.3,0.3c0.5,0,1,0.1,1.6,0.1 C12,10.4,12,10.4,12.1,10.4z M19.8,12.2c0.1,0,0.2,0,0.3,0c0,0,0.1,0,0.1,0c0,0,0-0.1-0.1-0.1c-0.4-0.4-0.9-0.6-1.5-0.5 c0,0-0.1,0-0.1,0.1c0,0.1,0,0.1,0.1,0.1c0.2,0.1,0.3,0.1,0.4,0.3C19.3,12.1,19.5,12.2,19.8,12.2z M3.8,11.2c0,0,0,0.1,0,0.1 c0,0.1,0.1,0.2,0.2,0.1c0.2-0.1,0.4-0.3,0.6-0.4c0.1-0.1,0.1-0.1,0-0.1c-0.1,0-0.3,0-0.4,0C3.9,10.8,3.8,10.9,3.8,11.2z"/>
    <path d="M8.1,13.3c0,0.8-0.6,1.4-1.4,1.4c-0.8,0-1.4-0.6-1.4-1.4c0-0.8,0.6-1.4,1.4-1.4C7.5,12,8.1,12.6,8.1,13.3z M7.7,13.4 c0-0.3,0-0.3-0.2-0.2c-0.1,0-0.1,0-0.2,0.1c-0.2,0-0.2,0.2-0.3,0.3c-0.1,0.1,0.1,0.1,0.1,0.2c0,0.1,0.1,0.1,0.1,0.1 c0.1,0.1,0.1,0.1,0.2,0C7.6,13.8,7.7,13.6,7.7,13.4z M6.7,13.7c-0.1,0-0.2,0-0.2,0.1c0,0.1-0.1,0.2-0.2,0.3c-0.1,0.1,0,0.1,0,0.1 c0.2,0.1,0.3,0.1,0.5,0.1c0.3-0.1,0.3-0.1,0.1-0.3c0,0-0.1-0.1-0.1-0.1C6.9,13.7,6.8,13.7,6.7,13.7z M6.9,12.9 c0,0.1,0.1,0.2,0.2,0.3c0.1,0.1,0.1,0,0.2-0.1c0.1,0,0.1-0.1,0.2-0.1c0.1,0,0.1-0.1,0.1-0.2c-0.1-0.1-0.2-0.2-0.3-0.3 c-0.2-0.1-0.3-0.1-0.3,0.2C6.9,12.7,6.9,12.8,6.9,12.9z M5.8,13.3c0,0.2,0,0.3,0.1,0.5c0.1,0.2,0.1,0.2,0.3,0c0,0,0.1-0.1,0.1-0.1 c0.1-0.2,0.1-0.4-0.2-0.4c-0.1,0-0.2-0.1-0.2-0.1C5.9,13.1,5.8,13.1,5.8,13.3C5.8,13.3,5.8,13.3,5.8,13.3z M5.9,12.9 C6,12.9,6.1,13,6.2,13c0.2,0.1,0.3,0.1,0.4,0c0.1-0.1,0.1-0.1,0.1-0.2c0-0.1,0-0.2,0-0.3c0-0.1,0-0.1-0.1-0.1 C6.3,12.5,6.1,12.6,5.9,12.9z"/>
    <path d="M17.4,12c0.8,0,1.4,0.6,1.4,1.4c0,0.8-0.6,1.4-1.4,1.4c-0.8,0-1.4-0.6-1.4-1.4C16,12.6,16.6,12,17.4,12z M18.4,13.4 c0-0.1,0-0.2-0.2-0.1c-0.1,0-0.1,0-0.2,0.1c-0.3,0.1-0.3,0.3-0.1,0.5c0,0,0.1,0.1,0.1,0.2c0.1,0.1,0.1,0.1,0.2,0 C18.3,13.8,18.4,13.6,18.4,13.4z M17.4,13.7c-0.1,0-0.2,0-0.3,0.2c0,0.1-0.1,0.1-0.1,0.2c-0.1,0.1,0,0.1,0,0.1 c0.2,0.1,0.4,0.1,0.6,0.1c0.3,0,0.3-0.1,0.1-0.3c0-0.1-0.1-0.1-0.1-0.2C17.6,13.8,17.5,13.7,17.4,13.7z M16.8,14 c0.1-0.1,0.2-0.2,0.3-0.3c0.1-0.1,0-0.4-0.1-0.4c-0.1,0-0.2-0.1-0.3-0.1c-0.1,0-0.1,0-0.1,0.1C16.5,13.5,16.6,13.8,16.8,14z M17.6,12.4c0,0.1,0,0.3,0,0.4c0,0.2,0.1,0.3,0.2,0.4c0.1,0.1,0.1-0.1,0.2-0.1c0.1,0,0.1-0.1,0.2-0.1c0.1,0,0.1-0.1,0.1-0.2 C18.1,12.6,17.9,12.5,17.6,12.4z M17.4,12.7c0-0.2,0-0.2-0.1-0.2c-0.3,0.1-0.5,0.2-0.6,0.4c0,0,0,0.1,0,0.1c0.2,0.2,0.4,0.2,0.6,0 C17.4,12.9,17.3,12.8,17.4,12.7z"/>
  </g>
</svg>