<?xml version="1.0" encoding="utf-8"?>
<svg viewBox="517.378 228.204 18.75 5.808" xmlns="http://www.w3.org/2000/svg">
  <g transform="matrix(1, 0, 0, 1, 514.753426, 219.103977)">
    <path d="M6,12.1C6.1,12.1,6,12.2,6,12.1c0,0.1,0.1,0.1,0.1,0.1c0,0,0,0,0,0c0,0,0,0,0,0C6,12.3,6,12.3,6,12.1C6,12.2,6,12.1,6,12.1 z"/>
    <path d="M6.1,11.9C6.1,11.9,6.1,11.9,6.1,11.9c0.1,0,0.2,0,0.2,0.1c0,0,0,0.1,0,0.1c0,0,0,0,0-0.1C6.2,12,6.2,12,6.1,11.9 C6.1,12,6.1,12,6.1,11.9z"/>
    <path d="M11.8,12.2C11.9,12.2,11.9,12.2,11.8,12.2c0,0.1,0.1,0.1,0.1,0.1c0,0,0,0,0,0c0,0,0,0-0.1,0C11.8,12.4,11.8,12.3,11.8,12.2 C11.8,12.2,11.8,12.2,11.8,12.2z"/>
    <path d="M11.9,12C11.9,12,12,12,11.9,12c0.1,0,0.2,0,0.2,0.1c0,0,0,0.1,0,0.1c0,0,0,0,0-0.1C12.1,12.1,12,12,11.9,12 C12,12,11.9,12,11.9,12z"/>
    <path d="M2.7,12.4c0.1,0.3,0.1,0.6,0.3,0.8c0.1,0.1,0.2,0.2,0.3,0.2c0.3,0.1,0.6,0.2,0.8,0.3c0.1,0,0.1,0,0.1-0.1 c0-0.4,0.1-0.8,0.3-1.1c0.3-0.5,0.6-0.8,1.2-0.9c0.7-0.2,1.4,0.1,1.9,0.7c0.2,0.2,0.3,0.5,0.4,0.8C8,13.3,8,13.6,8,13.9 c0,0.1,0,0.1,0.1,0.1c1.2,0,2.4,0,3.6,0c0,0,0,0,0,0c1.2,0,2.3,0,3.5,0c0.3,0,0.6,0.1,0.9,0.1c0.2,0,0.2,0,0.2-0.2 c0-0.2,0-0.5,0-0.7c0.1-0.3,0.2-0.7,0.4-0.9c0.2-0.2,0.4-0.4,0.6-0.5c0.3-0.1,0.5-0.2,0.8-0.2c0.5,0,0.9,0.2,1.2,0.5 c0.3,0.3,0.5,0.7,0.6,1.2c0,0.3,0,0.5,0,0.8c0,0.1,0,0.1,0.1,0.1c0.3,0,0.7,0,1-0.1c0.1,0,0.2,0,0.3-0.1c0.1,0,0.1-0.1,0-0.1 c0,0-0.1-0.1-0.1-0.1c-0.1,0-0.1-0.1,0-0.1c0.1-0.1,0.1-0.2,0.1-0.3c0-0.1,0-0.1,0-0.2c0-0.2,0-0.5,0-0.7c0-0.1,0-0.2,0-0.2 c0-0.1-0.1-0.1-0.2-0.2c-0.3-0.2-0.6-0.3-0.9-0.5c-0.3-0.1-0.5-0.2-0.8-0.3c-0.2-0.1-0.5-0.2-0.8-0.2c-0.2,0-0.3-0.1-0.5-0.1 c-0.2,0-0.5-0.1-0.7-0.1c-0.5-0.1-1-0.1-1.5-0.2c-0.2,0-0.5-0.1-0.7-0.1c-0.1,0-0.2-0.1-0.3-0.1c-0.5-0.2-1-0.5-1.5-0.7 c-0.4-0.2-0.8-0.3-1.2-0.4c-0.5-0.2-1-0.2-1.5-0.3c-0.4,0-0.8,0-1.2,0c-0.4,0-0.8,0.1-1.2,0.1C8,9.3,7.7,9.3,7.4,9.4 C7,9.5,6.6,9.6,6.2,9.7C6,9.7,5.8,9.8,5.6,9.9c-0.4,0.1-0.8,0.2-1.2,0.3c-0.2,0.1-0.5,0-0.7,0c-0.2,0-0.4-0.1-0.5-0.1 c-0.2,0-0.2,0-0.1,0.2C3,10.4,3,10.5,3,10.6c0,0,0,0,0,0.1c0.1,0.1,0.3,0.2,0.4,0.2c0.1,0,0.1,0.1,0.1,0.2 c-0.1,0.2-0.1,0.2-0.3,0.2c-0.1,0-0.1,0-0.2,0c-0.1,0-0.2,0-0.2,0.1c-0.1,0.1-0.1,0.1-0.1,0.2C2.6,11.8,2.6,12.1,2.7,12.4z M19.6,11.4c0.6,0.1,1,0.4,1.5,0.7C20.4,12.1,19.7,11.7,19.6,11.4z M12,12C12,12,11.9,12,12,12C11.9,12,12,12,12,12 c0.1-0.1,0.1,0,0.1,0.1c0,0,0,0.1,0,0.1C12,12.2,12.1,12.1,12,12C12.1,12.1,12,12,12,12z M11.8,12.3C11.8,12.2,11.8,12.2,11.8,12.3 C11.9,12.2,11.9,12.2,11.8,12.3c0.1,0,0.1,0.1,0.1,0.1c0,0,0,0,0,0c0,0,0,0-0.1,0C11.8,12.4,11.8,12.3,11.8,12.3z M9.4,9.6 c0.2,0,0.5,0,0.7-0.1c0.4,0,0.8-0.1,1.2,0c0.4,0.1,0.7,0.2,1.1,0.3c0.2,0.1,0.5,0.2,0.7,0.3c0.2,0.1,0.4,0.2,0.6,0.3 c0,0,0.1,0,0,0.1c0,0,0,0-0.1,0c-0.1,0-0.1-0.1-0.2-0.1c-0.2,0-0.3-0.1-0.5-0.1c-0.3,0-0.3,0-0.3,0.3c0,0.1,0,0.1-0.1,0.1 c-0.3,0-0.6,0-0.9,0c0,0,0,0,0,0c-0.1,0-0.2,0-0.3,0c-0.5,0-1.1,0-1.6-0.1c-0.1,0-0.2,0-0.2-0.1C9.4,10.2,9.3,10,9.2,9.8 C9.2,9.6,9.2,9.6,9.4,9.6z M7.5,9.8c0.3-0.1,0.6-0.1,0.9-0.2c0.2,0,0.3,0,0.4,0.2c0.1,0.1,0.1,0.2,0.1,0.3c0,0.2,0,0.2-0.2,0.2 c-0.1,0-0.1,0-0.2,0c-0.2,0-0.5-0.1-0.7-0.1c-0.2,0-0.2-0.1-0.3-0.2C7.4,9.9,7.4,9.9,7.5,9.8z"/>
    <path d="M4.5,13.4c0,0.8,0.7,1.6,1.6,1.5c0.9,0,1.6-0.7,1.6-1.6c0-0.9-0.7-1.6-1.6-1.6C5.2,11.7,4.4,12.4,4.5,13.4z M6.2,12 C6.1,12,6.1,12,6.2,12C6.1,11.9,6.1,11.9,6.2,12c0.1-0.1,0.1,0,0.1,0.1c0,0,0,0.1,0,0.1C6.2,12.1,6.2,12.1,6.2,12 C6.2,12,6.2,12,6.2,12z M6,12.2C6,12.2,6,12.1,6,12.2C6.1,12.1,6,12.2,6,12.2c0.1,0,0.1,0.1,0.1,0.1c0,0,0,0,0,0c0,0,0,0,0,0 C6,12.3,6,12.3,6,12.2z"/>
    <circle cx="6.1" cy="13.3" r="1.6"/>
    <circle cx="18.1" cy="13.3" r="1.6"/>
  </g>
</svg>