<?xml version="1.0" encoding="utf-8"?>
<svg viewBox="517.816 224.361 17.875 6.6" xmlns="http://www.w3.org/2000/svg">
  <g transform="matrix(1, 0, 0, 1, 514.59095, 215.661365)">
    <path d="M8.6,8.7c1.6,0,3,0,4.4,0.1c0.5,0,0.9,0,1.4,0.1c0.3,0,0.5,0.1,0.8,0.3c0.9,0.5,1.8,1,2.6,1.6c0.1,0.1,0.2,0.1,0.3,0.2 c0.8,0.2,1.5,0.4,2.2,0.8c0.2,0.1,0.4,0.3,0.5,0.5c0.2,0.5,0.3,1,0.3,1.5c0,0.2-0.1,0.5-0.3,0.6c0,0.1-0.1,0.1-0.2,0.1 c-0.2,0.1-0.5,0.1-0.7,0.1c-0.1,0-0.1,0-0.1-0.1c0-0.2,0-0.5,0-0.7c-0.1-0.5-0.5-1-1-1.1c-0.6-0.1-1.1,0.1-1.4,0.6 c-0.2,0.3-0.3,0.7-0.3,1.1c0,0.2,0,0.2-0.2,0.2c-2.2,0-4.4-0.1-6.6-0.1c-0.6,0-1.2,0-1.8,0c-0.1,0-0.1,0-0.1-0.1 c0-0.3,0-0.5-0.1-0.7c-0.2-0.5-0.6-0.8-1.1-0.9c-0.5-0.1-1,0.2-1.3,0.6c-0.2,0.3-0.3,0.6-0.4,0.9c0,0.1,0,0.1-0.1,0.1 c-0.5,0-1-0.1-1.6-0.1c-0.2,0-0.3-0.1-0.5-0.2c-0.1-0.1-0.1-0.3,0-0.4c0.1-0.1,0.1-0.3,0.1-0.4c0-0.4,0-0.7,0-1.1 c0-0.5,0.2-1,0.3-1.5c0.2-0.5,0.4-1,0.7-1.5c0-0.1,0-0.1,0-0.2c0,0-0.1-0.1-0.1-0.1c0,0-0.1-0.1,0-0.1c0,0,0.1,0,0.1,0c0,0,0,0,0,0 C5.7,8.7,7.3,8.7,8.6,8.7z M6.2,10.9C6.2,10.9,6.2,10.9,6.2,10.9c0.6,0,1.2,0,1.8,0.1c0.1,0,0.1,0,0.1-0.1c0.1-0.6,0.1-1.2,0.2-1.8 C8.4,9,8.3,9,8.2,9C7.3,9,6.4,9,5.5,9.1c-0.4,0-0.8,0.2-1,0.6c-0.2,0.3-0.3,0.6-0.4,1c0,0.1,0,0.1,0.1,0.2c0.1,0,0.1,0,0.2,0 C5,10.9,5.6,10.9,6.2,10.9z M12.5,14.2C12.5,14.2,12.5,14.2,12.5,14.2c0.4,0,0.8,0,1.2,0c0.9,0,1.8,0,2.6,0c0.1,0,0.1,0,0.1-0.1 c0-0.3,0.1-0.6,0.1-0.9c0-0.6,0.1-1.1,0-1.7c0-0.5-0.1-0.9-0.3-1.4c0-0.1,0-0.1-0.1-0.1c-0.3-0.2-0.7-0.5-1-0.7 c-0.5-0.3-1-0.4-1.5-0.4c-0.3,0-0.7,0-1,0c-1.3,0-2.6-0.1-3.9-0.1c-0.1,0-0.1,0-0.1,0.1c-0.1,0.8-0.1,1.5-0.1,2.3 c0,0.1,0,0.1-0.1,0.1c-1.1,0-2.2,0-3.3-0.1c0,0-0.1,0-0.1,0c0,0-0.1,0-0.1,0.1c0,0,0,0,0.1,0c0,0,0.1,0,0.1,0c1.1,0,2.3,0,3.4,0 c0.1,0,0.1,0,0.1,0.1c0,0.2,0,0.3,0,0.5c0,0.6,0,1.3,0.1,1.9c0,0.1,0,0.1,0.2,0.1C10,14.2,11.2,14.2,12.5,14.2z M20.8,12.9 c0-0.2-0.1-0.4-0.2-0.6c0-0.1-0.1-0.1-0.1-0.1c-0.4-0.2-0.8-0.3-1.2-0.4c0,0-0.1,0-0.1,0c0,0.1,0,0.1,0,0.1 C19.7,12.4,20.2,12.7,20.8,12.9z M3.3,12.1c0,0.1,0,0.1,0,0.2c0,0.1,0,0.1,0.1,0.1c0.2-0.1,0.4-0.2,0.5-0.5 c0.1-0.2,0.1-0.4,0.1-0.6c0-0.1,0-0.1-0.1-0.1c-0.1,0-0.2,0-0.3,0c-0.1,0-0.1,0-0.1,0.1C3.3,11.5,3.3,11.8,3.3,12.1z M16.6,10.5 c0.1,0.3,0.1,0.6,0.2,0.8c0,0,0,0.1,0.1,0.1c0.2,0,0.4,0,0.6,0c0,0,0.1,0,0.1,0c0,0,0-0.1,0-0.1c0,0-0.1-0.1-0.1-0.1 C17.1,10.9,16.8,10.7,16.6,10.5z M20.4,14.2c0.1,0,0.1,0,0.1-0.1c0.1-0.1,0.1-0.2,0.2-0.4c0-0.1,0-0.1-0.1-0.1 c-0.2,0-0.3,0.1-0.4,0.2c-0.1,0.1-0.1,0.1,0,0.2C20.3,14.2,20.3,14.2,20.4,14.2z"/>
    <path d="M17,14.1c0-0.7,0.6-1.2,1.2-1.2c0.7,0,1.2,0.6,1.2,1.2c0,0.7-0.6,1.2-1.2,1.2C17.6,15.3,17,14.8,17,14.1z M18.3,15 c0.5,0,0.9-0.4,0.9-0.9c0-0.5-0.4-0.9-0.9-0.9c-0.5,0-0.9,0.4-0.9,0.9C17.4,14.6,17.8,15,18.3,15z"/>
    <path d="M5.6,14c0-0.7,0.6-1.2,1.3-1.2c0.7,0,1.2,0.6,1.2,1.3c0,0.7-0.6,1.2-1.3,1.2C6.1,15.3,5.5,14.7,5.6,14z M7.7,14.1 c0-0.5-0.4-0.9-0.9-0.9c-0.5,0-0.9,0.4-0.9,0.9c0,0.5,0.4,0.9,0.9,0.9C7.3,15,7.7,14.6,7.7,14.1z"/>
    <path d="M12.7,11.6c0,0.8,0,1.7,0,2.5c0,0.1,0,0.1-0.1,0.1c-1.3,0-2.6,0-3.9,0c-0.1,0-0.1,0-0.1-0.1c-0.1-0.4-0.1-0.9-0.1-1.3 c0-0.9,0-1.9,0.1-2.8c0-0.3,0.1-0.6,0.1-0.9c0-0.1,0-0.1,0.1-0.1c0.8,0,1.5,0,2.3,0c0.5,0,1.1,0,1.6,0c0.1,0,0.1,0,0.1,0.1 C12.7,9.9,12.7,10.7,12.7,11.6z M10.6,11C10.6,11,10.6,11,10.6,11c0.6,0,1.2,0,1.8,0.1c0.1,0,0.1,0,0.1-0.1c0-0.6,0-1.1,0-1.7 c0-0.1,0-0.1-0.1-0.1c-0.2,0-0.4,0-0.6,0c-1,0-2-0.1-2.9-0.1C8.8,9,8.8,9,8.8,9.1c0,0.6,0,1.2,0,1.8c0,0.1,0,0.1,0.1,0.1 C9.4,11,10,11,10.6,11z M11.9,11.7c0.1,0,0.3,0,0.4-0.1c0.1,0,0.1,0,0.1-0.1c0-0.1-0.1-0.1-0.2-0.1c-0.3-0.1-0.6-0.2-0.8,0 c-0.1,0-0.1,0.1,0,0.1C11.6,11.6,11.8,11.7,11.9,11.7z"/>
    <path d="M12.8,11.6c0-0.8,0-1.7,0-2.5c0-0.1,0-0.1,0.1-0.1C13.2,9,13.6,9,14,9c0.4,0.1,0.8,0.2,1.1,0.4c0.4,0.2,0.7,0.4,1.1,0.7 c0,0,0.1,0.1,0.1,0.1c0.2,0.5,0.2,1,0.3,1.5c0,0.6,0,1.1,0,1.7c0,0.3-0.1,0.5-0.1,0.8c0,0.1,0,0.1-0.1,0.1c-1.1,0-2.3,0-3.4,0 c-0.1,0-0.1,0-0.1-0.1C12.8,13.2,12.8,12.4,12.8,11.6z M16.1,10.8c0-0.2,0-0.4,0-0.6c0-0.1,0-0.1-0.1-0.2c-0.3-0.2-0.6-0.4-0.8-0.5 c-0.6-0.3-1.2-0.5-1.8-0.5c-0.1,0-0.2,0-0.2,0.2c0,0.6,0.1,1.1,0.1,1.7c0,0.1,0,0.2,0.2,0.2c0.3,0,0.6,0.1,0.9,0.1 c0.6,0,1.1,0.1,1.7,0.1c0.1,0,0.1,0,0.1-0.1C16.1,11.1,16.1,11,16.1,10.8z M13.6,11.7c0.2,0,0.3,0,0.4-0.1c0.1,0,0.2,0,0.2-0.1 c0-0.1-0.1-0.1-0.2-0.1c-0.2-0.1-0.6-0.1-0.8,0.1c0,0,0,0.1,0,0.1C13.3,11.7,13.4,11.7,13.6,11.7z"/>
    <path d="M18.6,14.1c0,0.2-0.1,0.3-0.3,0.3c-0.2,0-0.3-0.1-0.3-0.3c0-0.2,0.2-0.3,0.3-0.3C18.5,13.7,18.6,13.9,18.6,14.1z M18.3,14.1C18.3,14.1,18.3,14.1,18.3,14.1c0.1-0.1,0-0.1,0-0.1C18.2,14,18.2,14,18.3,14.1C18.2,14.1,18.2,14.1,18.3,14.1z"/>
    <path d="M17.8,13.9C17.8,13.9,17.7,14,17.8,13.9c-0.1,0.1-0.1,0-0.1,0C17.6,13.8,17.7,13.8,17.8,13.9 C17.7,13.8,17.8,13.8,17.8,13.9z"/>
    <path d="M17.8,14.3C17.8,14.3,17.7,14.3,17.8,14.3c-0.1,0.1-0.1,0-0.1,0C17.6,14.2,17.7,14.2,17.8,14.3 C17.7,14.2,17.8,14.2,17.8,14.3z"/>
    <path d="M18.9,14.3C18.9,14.3,18.9,14.3,18.9,14.3c-0.1,0.1-0.1,0.1-0.1,0C18.8,14.2,18.8,14.2,18.9,14.3 C18.9,14.2,18.9,14.2,18.9,14.3z"/>
    <path d="M18.7,14.6C18.7,14.6,18.7,14.6,18.7,14.6c-0.1,0.1-0.1,0-0.1,0C18.6,14.5,18.6,14.5,18.7,14.6 C18.7,14.5,18.7,14.5,18.7,14.6z"/>
    <path d="M18.9,14C18.8,14,18.8,13.9,18.9,14c-0.1-0.1,0-0.1,0-0.1C18.9,13.8,18.9,13.8,18.9,14C18.9,13.9,18.9,14,18.9,14z"/>
    <path d="M18.3,14.7C18.3,14.7,18.3,14.8,18.3,14.7c-0.1,0.1-0.1,0-0.1,0C18.2,14.6,18.2,14.6,18.3,14.7 C18.3,14.6,18.3,14.6,18.3,14.7z"/>
    <path d="M18,14.6C18,14.6,18,14.6,18,14.6c-0.1,0.1-0.1,0-0.1,0C17.8,14.5,17.9,14.5,18,14.6C18,14.5,18,14.5,18,14.6z"/>
    <path d="M18.6,13.6C18.6,13.6,18.6,13.6,18.6,13.6c-0.1-0.1,0-0.1,0-0.1C18.7,13.5,18.7,13.5,18.6,13.6 C18.7,13.6,18.7,13.6,18.6,13.6z"/>
    <path d="M18.3,13.4C18.3,13.4,18.3,13.4,18.3,13.4c0.1,0.1,0,0.1,0,0.1C18.2,13.5,18.2,13.5,18.3,13.4 C18.2,13.4,18.2,13.4,18.3,13.4z"/>
    <path d="M17.9,13.5C18,13.5,18,13.5,17.9,13.5c0.1,0.1,0.1,0.1,0,0.1C17.9,13.6,17.8,13.6,17.9,13.5C17.8,13.5,17.9,13.5,17.9,13.5 z"/>
    <path d="M7.1,14.1c0,0.2-0.2,0.3-0.3,0.3c-0.2,0-0.3-0.2-0.3-0.3c0-0.2,0.2-0.3,0.3-0.3C7,13.7,7.1,13.9,7.1,14.1z M6.9,14.1 C6.9,14,6.8,14,6.9,14.1c-0.1-0.1-0.1,0-0.1,0C6.7,14.1,6.7,14.1,6.9,14.1C6.8,14.1,6.9,14.1,6.9,14.1z"/>
    <path d="M7.4,14.3C7.4,14.3,7.4,14.3,7.4,14.3c-0.1,0.1-0.1,0-0.1,0C7.3,14.2,7.3,14.2,7.4,14.3C7.4,14.2,7.4,14.2,7.4,14.3z"/>
    <path d="M6.3,13.9C6.3,13.9,6.2,14,6.3,13.9c-0.1,0.1-0.1,0-0.1,0C6.1,13.8,6.2,13.8,6.3,13.9C6.2,13.8,6.3,13.8,6.3,13.9z"/>
    <path d="M7.4,13.9C7.4,13.9,7.4,14,7.4,13.9c-0.1,0.1-0.1,0-0.1,0C7.3,13.8,7.3,13.8,7.4,13.9C7.4,13.8,7.4,13.8,7.4,13.9z"/>
    <path d="M6.3,14.3C6.3,14.3,6.2,14.3,6.3,14.3c-0.1,0.1-0.1,0-0.1,0C6.1,14.2,6.2,14.2,6.3,14.3C6.2,14.2,6.3,14.2,6.3,14.3z"/>
    <path d="M6.4,14.6C6.4,14.6,6.4,14.6,6.4,14.6c-0.1-0.1,0-0.1,0-0.1C6.5,14.5,6.5,14.5,6.4,14.6C6.5,14.6,6.5,14.6,6.4,14.6z"/>
    <path d="M6.8,14.6C6.8,14.6,6.9,14.6,6.8,14.6c0.1,0.1,0,0.1,0,0.1C6.7,14.8,6.7,14.7,6.8,14.6C6.7,14.6,6.7,14.6,6.8,14.6z"/>
    <path d="M7.1,14.5C7.2,14.5,7.2,14.5,7.1,14.5c0.1,0.1,0,0.1,0,0.1C7.1,14.6,7.1,14.6,7.1,14.5C7.1,14.5,7.1,14.5,7.1,14.5z"/>
    <path d="M6.9,13.5C6.9,13.5,6.8,13.5,6.9,13.5c-0.1,0.1-0.1,0-0.1,0C6.7,13.4,6.7,13.4,6.9,13.5C6.8,13.4,6.9,13.4,6.9,13.5z"/>
    <path d="M6.5,13.6C6.5,13.6,6.5,13.6,6.5,13.6c-0.1,0.1-0.1,0.1-0.1,0C6.4,13.5,6.4,13.5,6.5,13.6C6.5,13.5,6.5,13.5,6.5,13.6z"/>
    <path d="M7.2,13.6C7.2,13.6,7.2,13.6,7.2,13.6c-0.1,0.1-0.1,0.1-0.1,0C7.1,13.5,7.1,13.5,7.2,13.6C7.2,13.5,7.2,13.5,7.2,13.6z"/>
    <path d="M12,11.4c0.1,0,0.3,0,0.4,0c0,0,0.1,0,0.1,0c0,0,0,0-0.1,0c-0.3,0-0.5,0-0.8,0c0,0-0.1,0-0.1,0c0,0,0,0,0.1,0 C11.7,11.4,11.8,11.4,12,11.4z"/>
    <path d="M11.6,11.6c0.2,0,0.5,0,0.7,0C12.1,11.7,11.7,11.7,11.6,11.6z"/>
    <path d="M12.3,11.4c-0.2,0-0.5,0-0.7,0C11.7,11.3,12.1,11.3,12.3,11.4z"/>
    <path d="M13.6,11.5c-0.1,0-0.3,0-0.4,0c0,0-0.1,0-0.1,0c0,0,0,0,0.1,0c0.3,0,0.5,0,0.8,0c0,0,0.1,0,0.1,0c0,0,0,0-0.1,0 C13.9,11.5,13.7,11.5,13.6,11.5z"/>
    <path d="M13.2,11.6c0.2,0,0.5,0,0.7,0C13.8,11.7,13.4,11.7,13.2,11.6z"/>
    <path d="M13.2,11.4c0.2-0.1,0.5-0.1,0.7,0C13.7,11.4,13.5,11.4,13.2,11.4z"/>
  </g>
</svg>