<?xml version="1.0" encoding="utf-8"?>
<svg viewBox="517.3 226.107 18.907 10.002" xmlns="http://www.w3.org/2000/svg">
  <g transform="matrix(1, 0, 0, 1, 514.744148, 219.107288)">
    <path d="M8.1,13.1C7.6,12.6,7,12,6.4,11.5c-0.3-0.3-0.8-0.2-1.2-0.3c-0.7,0-1.1-0.4-1.5-0.9c-0.1-0.1-0.2-0.2-0.1-0.3 c0.1-0.1,0.2-0.1,0.3-0.1c1.5,0,2.9,0,4.4,0c0.2,0,0.4,0.1,0.6,0.2c0.5,0.3,1,0.4,1.5,0.5c0.8,0.1,1.4-0.1,1.8-0.8 c0.5-1,1.4-1.5,2.5-1.4c0.5,0,0.7-0.1,0.9-0.6c0.1-0.3,0-0.3-0.2-0.3c-0.4-0.1-0.7-0.1-1.1-0.2c-0.1,0-0.3,0-0.3-0.2 C14,7,14.2,7,14.3,7c0.7,0.1,1.3,0.2,1.9,0.5c0.9,0.4,1.7,1,2.4,1.7c0.5,0.6,0.3,1.4-0.3,1.8c-0.1,0.1-0.4,0-0.3,0.3 c0.1,0.2,0.2,0.4,0.5,0.4c0.9-0.1,1.7,0.2,2.3,0.8c0.9,1,0.9,2.7-0.1,3.7c-1,1-2.7,1.1-3.7,0.1c-1-1-1.2-2.6-0.3-3.6 c0.1-0.1,0.2-0.2,0.2-0.3c0.1-0.2-0.1-0.4-0.2-0.6c-0.2-0.2-0.2,0.1-0.3,0.1c-1,0.9-1.1,2.1-0.8,3.3c0.1,0.5,0,0.6-0.5,0.6 c-1.9,0-3.8,0-5.6,0c-0.5,0-0.7-0.1-0.7-0.6c0-0.1,0-0.2-0.1-0.3c-0.1-0.2,0.1-0.5-0.3-0.5c-0.3,0-0.6,0-0.6,0.5 c-0.2,1.1-1.2,1.9-2.3,2c-1,0.1-2.1-0.4-2.6-1.3c-0.7-1.3-0.3-2.9,0.9-3.6c1.2-0.7,2.8-0.4,3.6,0.9C7.6,13.2,7.8,13.4,8.1,13.1z M17.5,13.3c-0.5,0.7-0.5,1.5,0,2.1c0.5,0.6,1.4,0.8,2,0.4c0.7-0.4,1.1-1.2,0.8-2c-0.2-0.8-0.9-1.2-1.6-1.1c0,0.3,0.2,0.4,0.4,0.5 c0.7,0.3,1,0.9,0.7,1.5c-0.2,0.6-0.9,0.9-1.5,0.7c-0.6-0.2-0.9-0.8-0.7-1.5C17.8,13.7,17.8,13.5,17.5,13.3z M6.6,13.5 c-0.5-0.7-1.3-1-2.1-0.6c-0.7,0.3-1.1,1.2-0.9,1.9c0.2,0.8,0.9,1.3,1.8,1.2c0.7-0.1,1.3-0.6,1.3-1.2c-0.2,0-0.4,0.1-0.6,0.3 c-0.5,0.5-1.2,0.6-1.7,0.1c-0.5-0.4-0.5-1.1-0.2-1.6c0.4-0.5,1.1-0.6,1.7-0.2C6.1,13.6,6.3,13.6,6.6,13.5z"/>
  </g>
</svg>