<?xml version="1.0" encoding="utf-8"?>
<svg viewBox="517.853 227.708 17.8 6.8" xmlns="http://www.w3.org/2000/svg">
  <g transform="matrix(1, 0, 0, 1, 514.853401, 219.008212)">
    <path d="M7,10.6c1.2,0,2.3,0,3.5,0c0.3,0,0.3-0.1,0.3-0.3c0-0.4,0-0.9,0-1.3c0-0.2,0.1-0.3,0.3-0.3c0.6,0.1,1.2,0.1,1.8,0.2 c0.4,0.1,0.7,0.2,1,0.4c0.5,0.3,1,0.5,1.5,0.8c0.6,0.4,1.3,0.5,2,0.6c0.8,0.1,1.6,0.2,2.3,0.4c0.3,0,0.5,0.2,0.6,0.5 c0.1,0.2,0.1,0.5,0.4,0.6c0.1,0,0.1,0.2,0.1,0.3c0,0.3,0,0.6,0,0.8c0,0.3-0.1,0.4-0.4,0.4c-0.2,0-0.4,0-0.6,0c-0.1,0-0.2,0-0.2,0.1 c0,0.1-0.1,0.2-0.2,0.1c-0.1,0-0.1-0.1-0.1-0.2c0-0.7-0.2-1.2-0.8-1.6c-0.6-0.4-1.4-0.5-2,0c-0.6,0.4-0.9,1-0.8,1.8 c0,0.1,0,0.1,0,0.2c0,0.1,0.1,0.1,0,0.2c-0.1,0-0.2,0-0.2,0c-0.3-0.5-0.7-0.2-1.1-0.2c-0.1,0-0.3,0-0.4,0c-0.1,0-0.2-0.1-0.2,0.1 c0,0.1,0.1,0.2,0.2,0.2c0.1,0,0.2,0,0.3,0c0.3,0,0.6,0,0.8,0c0.1,0,0.2,0.1,0.2,0.2c0,0.1-0.1,0.1-0.2,0.1c-1.9,0-3.9,0-5.8,0 c-0.1,0-0.2,0-0.2-0.1c0-0.1,0.1-0.2,0.2-0.2c0.3,0,0.6,0,0.8,0c0.1,0,0.2,0.1,0.1-0.1c0-0.1,0-0.2-0.1-0.2c-0.3,0-0.6,0-0.9,0 c-0.1,0-0.1,0-0.2,0.1c0,0.1-0.1,0.2-0.2,0.2c-0.2,0-0.1-0.2,0-0.3c0-0.9-0.5-1.7-1.4-1.9c-1.1-0.3-2.2,0.6-2.2,1.7 c0,0.1,0.1,0.3-0.1,0.3c-0.1,0.1-0.1-0.1-0.2-0.2c-0.1-0.1-0.2,0-0.3-0.1c-0.5-0.2-1-0.5-1.5-0.7C3.1,13,3,12.7,3,12.4 c0-0.5,0-0.9,0-1.4c0-0.3,0.1-0.4,0.4-0.4C4.6,10.5,5.8,10.6,7,10.6z M13.4,10.6c0,0,0,0.1,0,0.1c0.5,0,0.9,0,1.4,0 c0.3,0,0.5,0,0.7-0.2c0.2-0.1,0.2-0.2,0-0.3C15,10,14.6,9.8,14.2,9.6C13.5,9.1,12.7,9,12,9c-0.2,0-0.3,0-0.3,0.3c0,0.4,0,0.7,0,1.1 c0,0.2,0.1,0.2,0.2,0.2C12.3,10.6,12.9,10.6,13.4,10.6z M10.9,13.9c0,0.2,0.2,0.3,0.3,0.3c0.8,0,1.6,0,2.5,0c0.1,0,0.2,0.1,0.2-0.1 c0-0.1-0.1-0.2-0.2-0.2C12.8,13.9,11.8,13.9,10.9,13.9z M20.5,11.9c-0.1-0.3-0.1-0.5-0.5-0.5c0,0-0.1,0-0.1-0.1 c-0.1-0.2-0.4-0.2-0.6-0.2C19.7,12,19.6,11.9,20.5,11.9z M3.6,11.2c-0.1,0-0.1,0-0.2,0c-0.3,0-0.4,0.1-0.3,0.3c0,0,0,0.1,0,0.1 c0,0.3,0.2,0.4,0.4,0.3c0.1-0.1,0.2-0.2,0.2-0.3c0.1-0.1,0.3-0.2,0.2-0.4C3.9,11.1,3.7,11.2,3.6,11.2z"/>
    <path d="M17.7,15.1c-0.8,0-1.5-0.7-1.5-1.5c0-0.8,0.7-1.5,1.6-1.5c0.8,0,1.5,0.7,1.5,1.5C19.3,14.4,18.6,15.1,17.7,15.1z M17.8,14.3c0.4,0,0.8-0.3,0.8-0.7c0-0.4-0.4-0.8-0.8-0.8c-0.4,0-0.8,0.3-0.8,0.8C17,14,17.3,14.3,17.8,14.3z"/>
    <path d="M7.4,12.4c0.9,0,1.5,0.7,1.5,1.6c0,0.8-0.7,1.5-1.6,1.5c-0.8,0-1.5-0.8-1.5-1.6C5.9,13,6.5,12.4,7.4,12.4z M7.4,14.6 c0.4,0,0.7-0.3,0.7-0.8c0-0.4-0.3-0.7-0.8-0.7c-0.4,0-0.8,0.3-0.7,0.8C6.6,14.3,6.9,14.7,7.4,14.6z"/>
  </g>
</svg>