<?xml version="1.0" encoding="utf-8"?>
<svg viewBox="213.42 109.37 404.227 179.575" xmlns="http://www.w3.org/2000/svg">
  <g transform="matrix(23.534821, 0, 0, 29.377182, 132.893953, -153.368548)" style="">
    <path d="M5.8,13.9c-0.4-0.3-0.8-0.2-1.1-0.3c-0.3-0.1-0.6-0.1-0.9-0.1c-0.3-0.1-0.3-0.1-0.3-0.4c0-0.3,0.1-0.6,0.1-0.9 c0-0.1,0-0.1,0.1-0.2C4,11.7,4,11.2,4.1,10.8c0-0.1,0-0.1-0.1-0.2c-0.1-0.2-0.1-0.2,0.1-0.2c0.4,0,0.7,0,1.1,0c0.1,0,0.2,0,0.3-0.1 C6.2,10,6.8,9.7,7.4,9.5C8.4,9.1,9.4,9,10.4,9c0.8,0,1.5,0,2.3,0.1c0.8,0.1,1.6,0.3,2.3,0.8c0.4,0.3,0.9,0.5,1.3,0.7 c0.2,0.1,0.4,0.2,0.6,0.2c0.8,0.1,1.6,0.2,2.4,0.5c0.2,0.1,0.3,0.1,0.5,0.2c0.4,0.3,0.7,0.7,0.7,1.3c0,0.3,0,0.6,0,0.8 c0,0.3-0.1,0.3-0.3,0.4c-0.3,0-0.6,0.1-1,0.1c-0.2,0-0.2,0-0.2-0.2c0.1-0.4-0.1-0.8-0.4-1.2c-0.4-0.5-0.9-0.6-1.5-0.4 c-0.6,0.2-0.9,0.6-1,1.2c0,0.2,0,0.4,0,0.6c0,0.1,0,0.1,0,0.1c-0.1,0-0.1,0-0.1,0C15.8,14,15.6,14,15.4,14c-2.1,0-4.3,0-6.4-0.1 c-0.2,0-0.2,0-0.2-0.2c0-0.8-0.6-1.5-1.4-1.5c-0.8,0-1.5,0.6-1.5,1.4C5.8,13.8,5.8,13.8,5.8,13.9z M10.3,9.3 C10.3,9.3,10.3,9.3,10.3,9.3c-0.1,0-0.3,0-0.4,0c-0.8,0-1.6,0.3-2.3,0.6c-0.2,0.1-0.2,0.1,0,0.2c0.1,0.1,0.2,0.1,0.3,0.2 c0.2,0.2,0.5,0.3,0.8,0.4c0.8,0,1.6,0.1,2.4,0.1c0.1,0,0.1,0,0.1-0.1c0-0.4,0-0.9,0-1.3c0-0.1,0-0.2-0.2-0.2 C10.7,9.3,10.5,9.3,10.3,9.3z M15.1,10.4c-0.3-0.1-0.5-0.3-0.8-0.4c-0.8-0.5-1.7-0.6-2.6-0.6c-0.1,0-0.2,0-0.2,0.2 c0.1,0.4,0.2,0.8,0.2,1.2c0,0.1,0.1,0.2,0.2,0.2c0.7,0,1.3,0.1,2,0.1c0.2,0,0.5,0.1,0.7,0C14.5,10.7,14.7,10.4,15.1,10.4z M20.1,12.5c0.1,0,0.1,0,0.2-0.1c0-0.1,0-0.1,0-0.2c-0.1-0.2-0.3-0.3-0.5-0.5c-0.3-0.2-0.7-0.3-1.1-0.4c-0.1,0-0.2,0-0.3,0 c-0.1,0-0.1,0.1-0.1,0.1c0.1,0.1,0.2,0.2,0.3,0.3c0.2,0.1,0.4,0.2,0.6,0.2c0.1,0,0.2,0.1,0.2,0.2c0,0.1,0.1,0.2,0.2,0.2 C19.7,12.4,19.9,12.4,20.1,12.5z M4,11.8c0,0.1,0,0.1,0,0.2c0.1,0,0.1,0,0.2,0c0.1,0,0.1-0.1,0.1-0.2c0.1-0.2,0.3-0.4,0.6-0.4 c0.2,0,0.4-0.1,0.6-0.2c0,0,0.1,0,0.1-0.1c0,0-0.1,0-0.1,0c-0.3,0-0.6,0-0.9,0c-0.2,0-0.4,0.2-0.5,0.4C4.1,11.5,4,11.7,4,11.8z"/>
    <path d="M18.8,13.8c0,0.7-0.5,1.2-1.2,1.2c-0.7,0-1.2-0.6-1.2-1.2c0-0.7,0.5-1.2,1.2-1.2C18.2,12.5,18.8,13.1,18.8,13.8z M17.6,12.9c-0.5,0-0.8,0.4-0.8,0.8c0,0.5,0.4,0.8,0.8,0.8c0.5,0,0.8-0.4,0.8-0.8C18.4,13.3,18,12.9,17.6,12.9z"/>
    <path d="M6.1,13.8c0-0.7,0.5-1.2,1.2-1.2c0.7,0,1.2,0.5,1.2,1.2C8.5,14.4,8,15,7.3,15C6.6,15,6.1,14.4,6.1,13.8z M7.4,12.9 c-0.5,0-0.8,0.4-0.8,0.8c0,0.5,0.4,0.8,0.8,0.8c0.5,0,0.8-0.4,0.8-0.8C8.2,13.3,7.8,12.9,7.4,12.9z"/>
    <path d="M17.7,13.8c0,0.1-0.1,0.1-0.2,0.1c-0.1,0-0.1-0.1-0.1-0.1c0-0.1,0.1-0.1,0.1-0.1C17.7,13.6,17.7,13.7,17.7,13.8z"/>
    <path d="M17,13.7c-0.1,0-0.2,0-0.2-0.1c0-0.1,0.1-0.1,0.1-0.1c0.1,0,0.2,0.1,0.2,0.2C17.2,13.7,17.1,13.7,17,13.7z"/>
    <path d="M18.1,13.7c0,0-0.1,0-0.1-0.1c0-0.1,0.1-0.1,0.2-0.1c0.1,0,0.1,0,0.1,0.1C18.3,13.7,18.2,13.7,18.1,13.7z"/>
    <path d="M18.1,14.2c0,0.1,0,0.1-0.1,0.1c-0.1,0-0.1-0.1-0.2-0.2c0,0,0-0.1,0.1-0.1C18,14.1,18,14.1,18.1,14.2z"/>
    <path d="M17.5,13.1c0-0.1,0-0.1,0.1-0.1c0.1,0,0.1,0.1,0.1,0.1c0,0.1,0,0.2-0.1,0.2C17.5,13.3,17.5,13.2,17.5,13.1z"/>
    <path d="M17.2,14.4c-0.1,0-0.1,0-0.1-0.1c0-0.1,0.1-0.2,0.2-0.2c0,0,0.1,0,0.1,0.1C17.3,14.3,17.3,14.4,17.2,14.4z"/>
    <path d="M18.3,13.9c0,0,0,0.1-0.1,0.1c-0.1,0-0.2,0-0.1-0.1c0-0.1,0-0.1,0.1-0.1C18.2,13.8,18.3,13.8,18.3,13.9z"/>
    <path d="M17.2,13.2c0.1,0,0.1,0.1,0.1,0.2c0,0.1,0,0.1-0.1,0.1c-0.1,0-0.1-0.1-0.1-0.1C17,13.2,17.1,13.2,17.2,13.2z"/>
    <path d="M17,13.9c0.1,0,0.1,0,0.1,0.1c0,0.1-0.1,0.1-0.1,0.1c-0.1,0-0.1-0.1-0.1-0.1C16.9,13.8,17,13.9,17,13.9z"/>
    <path d="M18.1,13.2c0,0.1-0.1,0.1-0.2,0.1c-0.1,0-0.1,0-0.1-0.1c0-0.1,0-0.1,0.1-0.1C18,13.1,18,13.2,18.1,13.2z"/>
    <path d="M17.6,14.5c-0.1,0-0.1,0-0.1-0.1c0-0.1,0-0.1,0.1-0.1C17.7,14.2,17.7,14.3,17.6,14.5C17.7,14.5,17.6,14.5,17.6,14.5z"/>
    <path d="M7.3,13.9c-0.1,0-0.1-0.1-0.1-0.1c0-0.1,0.1-0.1,0.2-0.1c0.1,0,0.1,0.1,0.1,0.1C7.5,13.8,7.4,13.9,7.3,13.9z"/>
    <path d="M7.2,13.2c0-0.1,0-0.2,0.1-0.2c0.1,0,0.1,0.1,0.1,0.1c0,0.1,0,0.2-0.1,0.2C7.2,13.3,7.3,13.2,7.2,13.2z"/>
    <path d="M6.8,13.7c-0.1,0-0.2,0-0.2-0.1c0-0.1,0.1-0.1,0.1-0.1c0.1,0,0.2,0.1,0.2,0.2C7,13.7,6.9,13.7,6.8,13.7z"/>
    <path d="M7.9,13.7c0,0-0.2,0-0.1-0.1c0-0.1,0.1-0.1,0.2-0.1c0.1,0,0.1,0,0.1,0.1C8.1,13.7,8,13.7,7.9,13.7z"/>
    <path d="M7.1,14.2c0,0.1,0,0.2-0.2,0.2c-0.1,0-0.1,0-0.1-0.1C6.9,14.2,7,14.1,7.1,14.2C7.1,14.1,7.1,14.1,7.1,14.2z"/>
    <path d="M7.6,14.1C7.6,14.1,7.6,14,7.6,14.1c0.2-0.1,0.2,0,0.3,0.1c0,0.1,0,0.1-0.1,0.1C7.6,14.3,7.6,14.2,7.6,14.1z"/>
    <path d="M8,14.1c-0.1,0-0.2,0-0.2-0.1c0-0.1,0-0.1,0.1-0.1c0.1,0,0.1,0,0.1,0.1C8.1,14,8,14,8,14.1z"/>
    <path d="M7.8,13.2c0,0.1-0.1,0.1-0.2,0.1c-0.1,0-0.1,0-0.1-0.1c0-0.1,0-0.2,0.1-0.2C7.8,13.1,7.8,13.2,7.8,13.2z"/>
    <path d="M6.9,14c0,0.1-0.1,0.1-0.1,0.1c-0.1,0-0.1-0.1-0.1-0.1c0-0.1,0.1-0.1,0.1-0.1C6.9,13.8,6.9,13.9,6.9,14z"/>
    <path d="M7.1,13.3c0,0.1,0,0.1-0.1,0.1c-0.1,0-0.1-0.1-0.2-0.1c0-0.1,0.1-0.1,0.1-0.1C7,13.2,7,13.2,7.1,13.3z"/>
    <path d="M7.5,14.4c0,0.1,0,0.1-0.1,0.1c-0.1,0-0.1,0-0.1-0.1c0-0.1,0-0.1,0.1-0.1C7.5,14.2,7.5,14.3,7.5,14.4z"/>
  </g>
</svg>