<?xml version="1.0" encoding="utf-8"?>
<svg viewBox="516.941 227.208 19.625 7.8" xmlns="http://www.w3.org/2000/svg">
  <g transform="matrix(1, 0, 0, 1, 514.840889, 219.108219)">
    <path d="M4,8.5c0.7-0.1,1.4-0.1,2-0.1c1.7-0.1,3.4-0.2,5.1-0.3c1,0,1.9,0.1,2.7,0.6c0.6,0.3,1.2,0.6,1.8,0.9c0.5,0.3,1,0.3,1.6,0.4 c1.2,0.2,2.3,0.4,3.5,0.7c0.2,0,0.3,0.1,0.3,0.3c0.1,0.4,0.2,0.7,0.6,0.9c0.1,0,0.1,0.1,0.1,0.2c0,0.3,0.1,0.6-0.1,0.8 c0,0.1,0,0.2,0,0.3c0.1,0.3,0.1,0.4-0.2,0.5c-0.4,0.1-0.8,0.3-1.2,0.4C20,14.4,20,14.4,20,14c0-1-0.6-1.9-1.6-2.1 c-1-0.2-2,0.3-2.3,1.3C16,13.6,15.9,14,16,14.4c0,0.1,0,0.2-0.1,0.2c0,0-0.1,0-0.1,0c-2.6,0-5.2,0-7.9,0c-0.2,0-0.3-0.1-0.2-0.3 C7.8,13.2,7.1,12.2,6,12c-1.1-0.2-2.2,0.5-2.4,1.6c0,0.1,0.1,0.4-0.1,0.4c-0.2,0.1-0.5,0.1-0.6-0.1c-0.4-0.4-0.8-0.8-0.8-1.4 c0-0.7,0-1.4,0.2-2.1c0-0.2,0.1-0.3,0.3-0.2c0.1,0,0.2,0,0.3-0.1c0.3-0.3,0.7-0.6,1-0.8C4.2,9.1,4.3,9,4.1,8.7 C4.1,8.7,4.1,8.6,4,8.5z M14.4,9.5c-1.2-0.8-2.5-1.1-3.8-1c-0.2,0-0.2,0.1-0.2,0.2c0,0.3,0.1,0.7,0.1,1c0,0.2,0.1,0.3,0.3,0.3 c0.9,0,1.9,0,2.8,0c0.2,0,0.4-0.1,0.5-0.2C14.1,9.6,14.2,9.6,14.4,9.5z M8.3,10c0.5,0,0.9,0,1.4,0c0.1,0,0.2,0,0.2-0.1 c0-0.4-0.1-0.8-0.1-1.2c0-0.1-0.1-0.2-0.2-0.2c-1,0-1.9,0.1-2.9,0.2c-0.1,0-0.2,0.1-0.1,0.2c0,0.3,0.1,0.6,0.1,0.9 C6.8,10,6.8,10,7,10C7.4,10,7.9,10,8.3,10z M8,13.3c0.2,0.5,0.3,0.5,0.7,0.5c1.6,0,3.2,0,4.9,0c0,0,0.1,0,0.1-0.1 C11.7,13.6,9.9,13.4,8,13.3z M15.9,11c-0.6-0.1-1.2-0.4-1.8-0.4c-1.4,0-2.9-0.1-4.3-0.1c-0.1,0-0.2,0-0.3,0.1 C11.6,10.8,13.8,10.9,15.9,11z M4.3,10.5c-0.6-0.1-1.2-0.1-1.7-0.2c-0.1,0-0.1,0-0.1,0.1C2.3,11,2.3,11.1,2.9,11c0,0,0,0,0.1,0 C3.5,10.9,3.9,10.8,4.3,10.5z M19.1,10.6c0.5,0.5,1.1,0.8,1.7,1c0.1,0,0.2,0.1,0.3,0c0.1-0.1,0-0.2-0.1-0.3c-0.1-0.2,0-0.4-0.2-0.5 C20.2,10.8,19.7,10.7,19.1,10.6z M6.1,10c0.1,0,0.3,0.1,0.3-0.1c0-0.3-0.1-0.6-0.1-0.9c0-0.3-0.2-0.1-0.4-0.1c-0.1,0-0.2,0-0.2,0.2 c0,0.2,0.1,0.5,0.1,0.7C5.8,10,5.8,10.1,6.1,10z"/>
    <path d="M5.6,15.9c-1,0-1.9-0.9-1.9-1.9c0-1,0.9-1.9,1.9-1.9c1,0,1.9,0.9,1.9,1.9C7.5,15.1,6.7,15.9,5.6,15.9z M4.6,14 c0,0.6,0.5,1.1,1.1,1.1c0.6,0,1.1-0.5,1.1-1.1c0-0.6-0.5-1.1-1.1-1.1C5.1,12.9,4.6,13.4,4.6,14z"/>
    <path d="M18,15.9c-1,0-1.9-0.8-1.9-1.9c0-1,0.9-1.9,1.9-1.9c1,0,1.9,0.9,1.9,1.9C19.8,15.1,19,15.9,18,15.9z M19.1,14 c0-0.6-0.5-1.1-1.1-1.1c-0.6,0-1.1,0.5-1.1,1.1c0,0.6,0.5,1.1,1.1,1.1C18.6,15.1,19.1,14.6,19.1,14z"/>
    <path d="M5.7,13.6c0-0.1,0-0.2,0-0.4c0-0.1,0-0.1,0.1-0.2c0.1,0,0.1,0,0.2,0c0.1,0,0,0.1,0,0.2C5.9,13.4,5.8,13.5,5.7,13.6 C5.7,13.7,5.7,13.7,5.7,13.6z"/>
    <path d="M6,14c0.1,0,0.3,0,0.4,0c0.1,0,0.1,0.1,0.1,0.2c0,0.1-0.1,0.1-0.2,0.1C6.3,14.2,6.1,14.2,6,14C6,14.1,6,14,6,14z"/>
    <path d="M5.4,14.2c-0.1,0.1-0.2,0.2-0.3,0.3c0,0-0.1,0.1-0.1,0.1c-0.1,0-0.1-0.1-0.1-0.2c0-0.1,0.1-0.1,0.1-0.1 C5.1,14.3,5.2,14.2,5.4,14.2z"/>
    <path d="M5.5,13.8c-0.1-0.1-0.2-0.2-0.3-0.3c0,0-0.1-0.1-0.1-0.2c0,0,0.1-0.1,0.2-0.1c0.1,0,0.1,0.1,0.1,0.1 C5.4,13.5,5.5,13.6,5.5,13.8z"/>
    <path d="M5.8,14.3c0.2,0.1,0.3,0.2,0.4,0.3c0,0,0.1,0.1,0.1,0.1c0,0-0.1,0.1-0.2,0.1c-0.1,0-0.1,0-0.1-0.1 C5.9,14.6,5.9,14.4,5.8,14.3z"/>
    <path d="M5.9,13.8c0.1-0.1,0.2-0.2,0.3-0.3c0,0,0.1-0.1,0.1-0.1c0,0,0.1,0.1,0.1,0.2c0,0.1,0,0.1-0.1,0.1 C6.2,13.7,6.1,13.8,5.9,13.8C6,13.8,5.9,13.8,5.9,13.8z"/>
    <path d="M5.4,13.9c-0.2,0-0.3,0-0.4,0c-0.1,0-0.1,0-0.2,0c0-0.1,0-0.2,0-0.2c0-0.1,0.1,0,0.2,0C5.1,13.8,5.2,13.9,5.4,13.9z"/>
    <path d="M5.6,14.3c0,0.2,0,0.3,0,0.4c0,0.1,0,0.1-0.1,0.2c-0.1,0-0.1,0-0.2,0c-0.1,0,0-0.1,0-0.2C5.5,14.6,5.5,14.5,5.6,14.3z"/>
    <path d="M18.3,14c0.1,0,0.3,0,0.4,0c0.1,0,0.1,0,0.2,0.1c0,0.1,0,0.1,0,0.2c0,0.1-0.1,0-0.2,0C18.5,14.2,18.4,14.1,18.3,14 C18.3,14.1,18.3,14,18.3,14z"/>
    <path d="M17.8,13.7c-0.1-0.1-0.2-0.2-0.3-0.3c0,0-0.1-0.1-0.1-0.1c0-0.1,0.1-0.1,0.2-0.1c0.1,0,0.1,0.1,0.1,0.1 C17.7,13.5,17.8,13.6,17.8,13.7C17.8,13.7,17.8,13.7,17.8,13.7z"/>
    <path d="M18,14.3c0,0.2,0,0.3,0,0.5c0,0.1,0,0.1-0.1,0.1c-0.1,0-0.2-0.1-0.1-0.2C17.8,14.6,17.8,14.5,18,14.3z"/>
    <path d="M18.2,13.8c0.1-0.1,0.2-0.2,0.3-0.3c0.1-0.1,0.1-0.1,0.2,0c0,0.1,0.1,0.1,0,0.2C18.5,13.7,18.4,13.8,18.2,13.8 C18.3,13.8,18.2,13.8,18.2,13.8z"/>
    <path d="M17.6,14c-0.2,0-0.3,0-0.4,0c-0.1,0-0.1,0-0.2-0.1c0-0.1,0-0.1,0-0.2c0-0.1,0.1,0,0.2,0C17.4,13.8,17.5,13.8,17.6,14z"/>
    <path d="M18.2,14.3c0.1,0.1,0.2,0.2,0.3,0.3c0,0,0.1,0.1,0.1,0.1c0,0.1-0.1,0.1-0.2,0.1c-0.1,0-0.1-0.1-0.1-0.1 C18.3,14.6,18.2,14.4,18.2,14.3z"/>
    <path d="M18,13.6c0-0.1,0-0.3,0-0.4c0-0.1,0-0.1,0.1-0.1c0.1,0,0.1,0,0.2,0c0.1,0,0,0.1,0,0.1C18.2,13.4,18.1,13.5,18,13.6 C18.1,13.6,18,13.6,18,13.6z"/>
    <path d="M17.7,14.2c-0.1,0.1-0.2,0.2-0.3,0.3c0,0-0.1,0.1-0.1,0.1c-0.1,0-0.1-0.1-0.1-0.2c0-0.1,0.1-0.1,0.1-0.1 C17.4,14.3,17.5,14.2,17.7,14.2z"/>
  </g>
</svg>