<?xml version="1.0" encoding="utf-8"?>
<svg viewBox="518.403 226.058 16.7 10.1" xmlns="http://www.w3.org/2000/svg">
  <g transform="matrix(1, 0, 0, 1, 514.803413, 219.058216)">
    <path d="M9.3,7c1.7,0,3.4,0,5,0c0.3,0,0.4,0.1,0.4,0.4c0,2.1,0,4.2,0,6.3c0,0,0,0,0,0.1c0,0.2-0.1,0.4-0.4,0.4c-0.3,0-0.5,0-0.8,0 c-1.6,0-3.2,0-4.9,0c-1,0-2.1,0-3.1,0c-0.1,0-0.1,0-0.1-0.1c0-0.2-0.1-0.3-0.3-0.3c-0.3,0-0.5,0-0.8,0c-0.1,0-0.3,0-0.4,0 c-0.1,0-0.1,0-0.1-0.1c0-0.5,0-1,0-1.5c0-1.5,0-3.1,0-4.6c0-0.1,0-0.2,0-0.3C3.9,7.1,4,7,4.1,7c0,0,0,0,0.1,0C5.9,7,7.6,7,9.3,7 C9.3,7,9.3,7,9.3,7z"/>
    <path d="M15,11.8c0-0.7,0-1.3,0-2c0-0.1,0.1-0.2,0.2-0.3c0.2-0.1,0.4-0.1,0.6-0.1c0.6,0,1.2,0,1.8,0c0.5,0,0.9,0.2,1.2,0.6 c0.3,0.5,0.6,1,0.9,1.5c0.1,0.2,0.2,0.4,0.3,0.6c0.2,0.3,0.2,0.6,0.2,0.9c0,0.5,0,1.1,0,1.6c0,0.1,0,0.1-0.1,0.1 c-0.6,0-1.2,0-1.8,0c-0.1,0-0.1,0-0.1-0.1c-0.2-0.3-0.5-0.5-0.8-0.7c-0.1-0.1-0.2-0.1-0.3-0.1c-0.6,0-1.3,0-1.9,0 c-0.1,0-0.1,0-0.1-0.1C15,13.1,15,12.4,15,11.8C15,11.8,15,11.8,15,11.8z M17,10C17,10,17,10,17,10c-0.4,0-0.7,0-1.1,0 c-0.1,0-0.1,0-0.1,0.1c0,0.5,0,1,0,1.5c0,0.4,0.2,0.6,0.5,0.7c0.6,0.2,1.1,0.3,1.7,0.5c0.3,0.1,0.7,0.2,1.1,0.3 c0.3,0.1,0.5-0.1,0.5-0.4c0-0.2,0-0.5,0-0.7c0-0.1,0-0.1,0-0.1c-0.3-0.5-0.6-0.9-0.8-1.4c-0.2-0.3-0.4-0.4-0.7-0.4 C17.7,10,17.3,10,17,10z"/>
    <path d="M8.8,14.3c0.1,0,0.1,0,0.1,0c1.8,0,3.6,0,5.4,0c0.2,0,0.4,0,0.6-0.2c0,0,0.1,0,0.1,0c0.6,0,1.2,0,1.7,0 c0.3,0,0.6,0.1,0.9,0.3c-0.1,0-0.2-0.1-0.3-0.1c-0.9-0.3-1.7,0.2-1.9,1.1c0,0.1,0,0.2,0,0.3c0,0,0,0.1,0,0.1c-0.1,0-0.2,0-0.3,0 c0,0,0-0.1,0-0.1c0-0.2,0-0.5,0-0.7c0-0.1,0-0.1-0.1-0.1c-0.6,0-1.2,0-1.8,0c-0.1,0-0.1,0-0.1,0.1c0,0.2,0,0.5,0,0.7 c0,0.1,0,0.1-0.1,0.1c-1,0-2.1,0-3.1,0c-0.1,0-0.1,0-0.1-0.1C9.5,15,9.3,14.6,8.8,14.3C8.8,14.3,8.8,14.3,8.8,14.3z"/>
    <path d="M16.7,14.3c0.8,0,1.4,0.6,1.4,1.4c0,0.8-0.6,1.4-1.4,1.4c-0.8,0-1.4-0.6-1.4-1.4C15.4,14.9,16,14.3,16.7,14.3z M16.1,15.6 c0,0.4,0.3,0.7,0.7,0.7c0.4,0,0.7-0.3,0.7-0.7c0-0.4-0.3-0.7-0.7-0.7C16.4,14.9,16.1,15.2,16.1,15.6z"/>
    <path d="M8.1,14.3c0.8,0,1.4,0.6,1.4,1.4c0,0.8-0.6,1.4-1.4,1.4c-0.8,0-1.4-0.6-1.4-1.4C6.7,14.9,7.3,14.3,8.1,14.3z M8.8,15.6 c0-0.4-0.3-0.7-0.7-0.7c-0.4,0-0.7,0.3-0.7,0.7c0,0.4,0.3,0.7,0.7,0.7C8.5,16.3,8.8,16,8.8,15.6z"/>
    <path d="M4.6,13.9c0.2,0,0.4,0,0.6,0c0.2,0,0.2,0,0.2,0.2c0,0.3,0,0.6,0,1c0,0.1,0,0.2-0.2,0.2c-0.4,0-0.8,0-1.3,0 c-0.2,0-0.3-0.1-0.3-0.3c0-0.2,0-0.4,0-0.6c0-0.2,0.1-0.4,0.4-0.4C4.2,13.9,4.4,13.9,4.6,13.9C4.6,13.9,4.6,13.9,4.6,13.9z"/>
    <path d="M13.9,16c-0.3,0-0.6,0-0.8,0C13,16,13,16,13,15.9c0-0.3,0-0.6,0-1c0-0.1,0-0.1,0.1-0.1c0.6,0,1.2,0,1.7,0 c0.1,0,0.1,0,0.1,0.1c0,0.3,0,0.6,0,1c0,0.1,0,0.1-0.1,0.1C14.5,16,14.2,16,13.9,16C13.9,16,13.9,16,13.9,16z"/>
    <path d="M7.3,14.3c-0.2,0.1-0.3,0.3-0.5,0.5c-0.1,0.2-0.2,0.4-0.2,0.6c0,0.2,0,0.4,0,0.6c0,0.1-0.1,0.1-0.1,0.1 c-0.1,0-0.1,0-0.1-0.1c0-0.1,0-0.2,0-0.3c0-0.1,0-0.1-0.1-0.1c-0.1,0-0.2,0-0.3,0c-0.3,0-0.4-0.2-0.4-0.4c0-0.3,0-0.5,0-0.8 c0,0,0-0.1,0.1-0.1C6.2,14.3,6.7,14.3,7.3,14.3C7.3,14.3,7.3,14.3,7.3,14.3z"/>
    <path d="M19,14.9c0.2,0,0.4,0,0.6,0c0.1,0,0.1,0,0.1,0.1c0,0.1,0,0.2,0,0.3c0,0.1,0,0.1-0.1,0.1c-0.3,0-0.7,0.1-1,0.1 c-0.2,0-0.2,0-0.3-0.2c0-0.1-0.1-0.2-0.1-0.3c0-0.1,0-0.1,0.1-0.1C18.5,14.9,18.7,14.9,19,14.9C19,14.9,19,14.9,19,14.9z"/>
    <path d="M19.8,15.3c0-0.1,0-0.2,0-0.3c0-0.1,0-0.1,0.1-0.2c0.1,0,0.2,0,0.3,0c0.1,0,0.1,0,0.1,0.1c0,0.2,0,0.4,0,0.7 c0,0.1,0,0.1-0.1,0.1c-0.1,0-0.2,0-0.4,0c-0.1,0-0.1,0-0.1-0.1C19.8,15.5,19.8,15.4,19.8,15.3C19.8,15.3,19.8,15.3,19.8,15.3z"/>
    <path d="M18.4,15.6c0.4,0,0.8-0.1,1.2-0.1c0.1,0,0.1,0,0.1,0.1c0,0.1,0,0.1-0.1,0.1C19.2,15.7,18.8,15.7,18.4,15.6z"/>
    <path d="M17,15.6c0,0.2-0.1,0.3-0.3,0.3c-0.2,0-0.3-0.1-0.3-0.3c0-0.2,0.1-0.3,0.3-0.3C16.9,15.4,17,15.5,17,15.6z"/>
    <path d="M8.1,15.4c0.2,0,0.3,0.1,0.3,0.3c0,0.2-0.1,0.3-0.3,0.3c-0.2,0-0.3-0.1-0.3-0.3C7.8,15.5,7.9,15.4,8.1,15.4z"/>
  </g>
</svg>