<?xml version="1.0" encoding="utf-8"?>
<svg viewBox="519.553 228.008 14.4 6.2" xmlns="http://www.w3.org/2000/svg">
  <g transform="matrix(1, 0, 0, 1, 514.753426, 219.108219)">
    <path d="M18.3,13.7c-0.2-0.5-0.6-0.8-1.1-0.8c-0.5,0-1,0.4-1.1,0.9c-0.1,0.3-0.2,0.3-0.4,0.3c-1.5,0-2.9,0-4.4,0 c-0.6,0-1.2,0-1.8,0c-0.1,0-0.2,0-0.3-0.2c-0.2-0.6-0.6-1-1.1-1c-0.6,0-1,0.3-1.2,1c0,0.1-0.1,0.2-0.2,0.2c-0.5,0-0.9,0-1.4,0 c-0.1,0-0.2,0-0.2-0.1c0-0.1,0.1-0.1,0.2-0.1c0.3,0,0.3-0.1,0.3-0.4c0-0.4-0.3-0.2-0.6-0.3c0.3-0.1,0.3-0.2,0.3-0.4 c0-0.1,0-0.3-0.1-0.3C5,12.4,5,12.3,5,12.2c-0.1-1,0.1-1.9,0.3-2.9c0-0.3,0.2-0.4,0.5-0.4c3.3,0,6.5,0,9.8,0c0.3,0,0.5,0.1,0.7,0.3 c0.3,0.5,0.7,1,1,1.5c0.1,0.2,0.3,0.3,0.5,0.4c0.3,0.1,0.6,0.2,0.9,0.3c0.1,0,0.2,0.1,0.2,0.3c0,0.2-0.1,0.1-0.2,0.1 c-0.1,0.1-0.1,0.1-0.1,0.3c0,0.2,0,0.4,0,0.6c0,0.2,0.1,0.4,0.3,0.4c-0.2,0-0.5-0.1-0.5,0.4c0,0.3,0.2,0.4,0.5,0.3 C18.4,14.1,18.4,14.1,18.3,13.7z M16,9.3c-0.1-0.1-0.2-0.2-0.3-0.2c-0.4,0-0.7,0-1.1,0c-0.2,0-0.3,0.1-0.3,0.3c0,0.5,0,0.9,0,1.4 c0,0.2,0.1,0.2,0.2,0.2c0.9,0,1.7,0,2.7,0C16.8,10.4,16.4,9.9,16,9.3z M17.8,12.8c-0.3-0.3-0.7-0.3-1.1-0.1 C17.1,12.6,17.5,12.7,17.8,12.8z M8.4,12.7c-0.4-0.2-0.7-0.1-1.1,0.1C7.7,12.7,8.1,12.6,8.4,12.7z"/>
    <path d="M17.2,13.1c0.6,0,1,0.5,1,1c0,0.6-0.5,1-1,1c-0.6,0-1-0.5-1-1C16.2,13.5,16.6,13.1,17.2,13.1z M16.6,14.1 c0,0.3,0.2,0.5,0.5,0.5c0.3,0,0.6-0.3,0.6-0.6c0-0.3-0.3-0.6-0.6-0.6C16.9,13.5,16.6,13.8,16.6,14.1z"/>
    <path d="M9,14.1c0,0.6-0.4,1-1,1c-0.6,0-1-0.5-1-1c0-0.5,0.5-1,1-1C8.6,13.1,9,13.5,9,14.1z M7.5,14.1c0,0.3,0.3,0.6,0.6,0.6 c0.3,0,0.5-0.2,0.6-0.5c0-0.3-0.2-0.6-0.5-0.6C7.7,13.5,7.5,13.8,7.5,14.1z"/>
    <path d="M18.9,13.7c0.2,0,0.3,0.1,0.3-0.2c0-0.3-0.2-0.2-0.3-0.2c-0.1,0-0.4-0.1-0.4,0.2C18.5,13.9,18.7,13.7,18.9,13.7z"/>
    <path d="M5.1,13.3c-0.1,0-0.3-0.1-0.3,0.2c0,0.3,0.2,0.2,0.3,0.2c0.1,0,0.4,0.2,0.4-0.2C5.5,13.2,5.3,13.4,5.1,13.3z"/>
    <path d="M18.9,12.8c0-0.1,0-0.3-0.1-0.3c-0.2,0-0.1,0.1-0.1,0.2c0,0.1,0,0.2,0.1,0.2C19,13,18.9,12.9,18.9,12.8z"/>
    <path d="M18.7,12.2c0,0.1,0,0.2,0.1,0.2c0.2,0,0.1-0.1,0.1-0.2c0-0.1,0.1-0.3-0.1-0.2C18.7,12,18.7,12.1,18.7,12.2z"/>
    <path d="M5,12.8c0,0.1,0,0.2,0.1,0.2c0.1,0,0.1-0.1,0.1-0.2c0-0.1,0-0.2-0.1-0.2C5,12.6,5,12.7,5,12.8z"/>
    <path d="M17.2,14.5c0.2,0,0.4-0.1,0.4-0.4c0-0.2-0.1-0.4-0.4-0.4c-0.3,0-0.4,0.1-0.4,0.4C16.8,14.3,16.9,14.5,17.2,14.5z"/>
    <path d="M7.6,14c0,0.3,0.1,0.4,0.4,0.4c0.2,0,0.4-0.1,0.4-0.4c0-0.2-0.1-0.4-0.4-0.4C7.8,13.7,7.7,13.8,7.6,14z"/>
  </g>
</svg>